<?xml version="1.0" encoding="utf-8"?>
<svg xmlns="http://www.w3.org/2000/svg" fill="none" height="81" viewBox="0 0 81 81" width="81">
    <g display="none" id="bg">
        <g display="inline">
            <rect fill="#D4EBF4" height="81" width="81"/>
        </g>
    </g>
<path clip-rule="evenodd" d="M56.7827 55.1986C52.7771 59.7811 46.8887 62.6758 40.3242 62.6758C33.6854 62.6758 27.738 59.7152 23.7303 55.0422L40.272 44.0769L56.7827 55.1986ZM60.076 50.1827L45.6849 40.4887L59.8858 31.0751C61.3513 34.0099 62.1758 37.3208 62.1758 40.8242C62.1758 44.1731 61.4224 47.346 60.076 50.1827ZM63.4564 59.6941L74.8507 67.3694L78.2028 62.3931L66.767 54.6898C68.944 50.5467 70.1758 45.8293 70.1758 40.8242C70.1758 35.6862 68.8777 30.8514 66.5916 26.6298L77.289 19.5386L73.9739 14.5376L63.2188 21.6671C57.7429 15.1298 49.519 10.9727 40.3242 10.9727C31.1928 10.9727 23.0189 15.0727 17.5432 21.5323L6.79028 14.2891L3.43821 19.2654L14.1412 26.475C11.8027 30.733 10.4727 35.6233 10.4727 40.8242C10.4727 45.7345 11.6582 50.3679 13.7587 54.4538L2.20703 62.1113L5.52215 67.1123L17.0247 59.4873C22.4956 66.3085 30.8999 70.6758 40.3242 70.6758C49.653 70.6758 57.9823 66.3966 63.4564 59.6941ZM20.4845 49.9953L34.8859 40.4487L20.8152 30.9706C19.3168 33.9313 18.4727 37.2792 18.4727 40.8242C18.4727 44.0995 19.1933 47.2065 20.4845 49.9953ZM24.2339 26.0392L40.2987 36.8606L56.4933 26.1253C52.4963 21.7311 46.7324 18.9727 40.3242 18.9727C33.958 18.9727 28.2277 21.6951 24.2339 26.0392Z" fill="black" fill-rule="evenodd"/>
</svg>