<?xml version="1.0" encoding="utf-8"?>
<svg xmlns="http://www.w3.org/2000/svg" fill="none" height="81" viewBox="0 0 81 81" width="81">
    <g display="none" id="bg">
        <g display="inline">
            <rect fill="#D4EBF4" height="81" width="81"/>
        </g>
    </g>
<path clip-rule="evenodd" d="M65.4541 10.7969H19.5929V18.7969H61.9849L62.9669 25.6708H43.1433C28.6371 25.6708 15.7032 32.4619 10.821 43.1846L10.819 43.189C9.17852 46.8037 7.59689 52.6611 6.46543 57.3222C5.88503 59.7132 5.39851 61.8956 5.05718 63.4796C4.88634 64.2724 4.75146 64.9172 4.65894 65.3655C4.61267 65.5897 4.57697 65.765 4.55263 65.8851L4.52475 66.0234L4.51449 66.0746C4.28068 67.2493 4.58556 68.4669 5.34533 69.3928C6.1051 70.3187 7.23981 70.8555 8.43753 70.8555H72.891C74.0506 70.8555 75.1531 70.3523 75.9128 69.4763C76.6726 68.6003 77.0148 67.4377 76.8508 66.2898L69.4139 14.2312C69.1324 12.2606 67.4447 10.7969 65.4541 10.7969ZM43.1433 33.6708H64.1097L68.279 62.8555H13.3869C13.6369 61.7473 13.9241 60.5092 14.2397 59.2094C15.3886 54.4764 16.8185 49.3286 18.1029 46.4974C21.3032 39.4716 30.729 33.6708 43.1433 33.6708ZM43.6133 48.2353C43.6133 47.3072 43.8885 46.4 44.4041 45.6284C44.9197 44.8567 45.6525 44.2553 46.5099 43.9002C47.3673 43.545 48.3108 43.4521 49.221 43.6331C50.1312 43.8142 50.9673 44.2611 51.6236 44.9173C52.2798 45.5735 52.7267 46.4096 52.9077 47.3199C53.0888 48.2301 52.9959 49.1735 52.6407 50.0309C52.2856 50.8884 51.6841 51.6212 50.9125 52.1368C50.1409 52.6524 49.2336 52.9276 48.3056 52.9276C47.0611 52.9276 45.8676 52.4332 44.9876 51.5532C44.1077 50.6733 43.6133 49.4798 43.6133 48.2353ZM32.2305 48.2353C32.2305 47.3072 32.5057 46.4 33.0213 45.6284C33.5369 44.8567 34.2697 44.2553 35.1271 43.9002C35.9845 43.545 36.928 43.4521 37.8382 43.6331C38.7484 43.8142 39.5845 44.2611 40.2407 44.9173C40.897 45.5735 41.3439 46.4096 41.5249 47.3199C41.706 48.2301 41.6131 49.1735 41.2579 50.0309C40.9028 50.8884 40.3013 51.6212 39.5297 52.1368C38.758 52.6524 37.8508 52.9276 36.9228 52.9276C35.6783 52.9276 34.4848 52.4332 33.6048 51.5532C32.7248 50.6733 32.2305 49.4798 32.2305 48.2353Z" fill="black" fill-rule="evenodd"/>
</svg>