<?xml version="1.0" encoding="utf-8"?>
<svg xmlns="http://www.w3.org/2000/svg" fill="none" height="81" viewBox="0 0 81 81" width="81">
    <g display="none" id="bg">
        <g display="inline">
            <rect fill="#D4EBF4" height="81" width="81"/>
        </g>
    </g>
<path clip-rule="evenodd" d="M24.1661 20.654C25.0722 20.1867 25.8763 19.7178 26.5723 19.2779C26.9831 19.6303 27.4408 19.9929 27.9468 20.3542C30.7216 22.3355 34.8973 24.2345 40.5743 24.2345C46.2513 24.2345 50.4271 22.3355 53.2018 20.3542C53.7079 19.9929 54.1656 19.6303 54.5764 19.2779C55.2724 19.7178 56.0764 20.1867 56.9826 20.654C58.8293 21.6063 61.1203 22.562 63.7962 23.2462L54.9242 65.8125H26.1025L17.2403 23.2747C19.9644 22.5887 22.2936 21.6196 24.1661 20.654ZM15.6067 15.4339C17.5123 14.9262 19.1561 14.2365 20.4994 13.5438C21.8072 12.8694 22.8126 12.2008 23.4731 11.7167C23.8025 11.4753 24.0434 11.2819 24.1904 11.1594C24.2639 11.0982 24.3136 11.055 24.3389 11.0327L24.3551 11.0183L27.834 7.78906L30.3986 11.7566C30.4074 11.769 30.424 11.792 30.4484 11.8243C30.515 11.9126 30.6382 12.0687 30.8197 12.271C31.1845 12.6773 31.7722 13.2556 32.5956 13.8436C34.2124 14.998 36.7927 16.2345 40.5743 16.2345C44.3559 16.2345 46.9363 14.998 48.553 13.8436C49.3765 13.2556 49.9642 12.6773 50.3289 12.271C50.5105 12.0687 50.6337 11.9126 50.7003 11.8243C50.7246 11.792 50.7412 11.7691 50.7501 11.7566L53.3146 7.78906L56.7936 11.0183L56.8097 11.0327C56.8351 11.055 56.8848 11.0982 56.9582 11.1594C57.1052 11.2819 57.3461 11.4753 57.6755 11.7167C58.3361 12.2008 59.3414 12.8694 60.6492 13.5438C61.9664 14.223 63.5724 14.8993 65.4308 15.404L65.8089 13.5898H73.9808L61.4287 73.8125H19.5974L7.05078 13.5898H15.2226L15.6067 15.4339ZM36.3693 40.8878C35.8127 41.7208 35.5156 42.7001 35.5156 43.7019C35.5156 45.0452 36.0493 46.3335 36.9992 47.2834C37.9491 48.2333 39.2374 48.767 40.5808 48.767C41.5826 48.767 42.5618 48.4699 43.3948 47.9134C44.2278 47.3568 44.877 46.5657 45.2603 45.6402C45.6437 44.7147 45.744 43.6962 45.5486 42.7137C45.3531 41.7312 44.8707 40.8286 44.1623 40.1203C43.454 39.4119 42.5515 38.9295 41.5689 38.734C40.5864 38.5386 39.5679 38.6389 38.6424 39.0223C37.7169 39.4057 36.9258 40.0549 36.3693 40.8878Z" fill="black" fill-rule="evenodd"/>
</svg>