<?xml version="1.0" encoding="utf-8"?>
<svg xmlns="http://www.w3.org/2000/svg" fill="none" height="81" viewBox="0 0 81 81" width="81">
    <g display="none" id="bg">
        <g display="inline">
            <rect fill="#D4EBF4" height="81" width="81"/>
        </g>
    </g>
<path clip-rule="evenodd" d="M19.8001 10.7305H65.7743C67.7648 10.7305 69.4525 12.1942 69.734 14.1647L77.1893 66.3483C77.3533 67.4963 77.0111 68.6589 76.2514 69.5349C75.4916 70.4109 74.3891 70.9141 73.2295 70.9141H8.61722C7.41948 70.9141 6.28478 70.3773 5.525 69.4514C4.76523 68.5255 4.46036 67.3078 4.69419 66.1332L4.70446 66.0818L4.73242 65.9432C4.75681 65.8228 4.7926 65.6472 4.83898 65.4224C4.93172 64.973 5.06693 64.3267 5.23818 63.5321C5.58034 61.9444 6.06804 59.7568 6.64985 57.3601C7.78412 52.6877 9.36947 46.8171 11.0136 43.1947L11.0156 43.1903C15.9078 32.4462 28.8693 25.6401 43.4085 25.6401H63.2923L62.3051 18.7305H19.8001V10.7305ZM64.4352 33.6401H43.4085C30.9608 33.6401 21.5075 39.4562 18.2973 46.5033C17.0093 49.3422 15.5758 54.5032 14.4241 59.2474C14.1066 60.555 13.8177 61.8002 13.5666 62.9141H68.6174L64.4352 33.6401ZM37.6342 46.0336C37.1188 46.8049 36.8438 47.7116 36.8438 48.6392C36.8438 49.8831 37.3379 51.076 38.2174 51.9555C39.097 52.8351 40.2899 53.3292 41.5337 53.3292C42.4613 53.3292 43.3681 53.0542 44.1394 52.5388C44.9106 52.0235 45.5118 51.291 45.8667 50.434C46.2217 49.577 46.3146 48.634 46.1336 47.7242C45.9527 46.8145 45.506 45.9788 44.8501 45.3229C44.1942 44.667 43.3585 44.2203 42.4487 44.0393C41.5389 43.8584 40.5959 43.9513 39.739 44.3062C38.882 44.6612 38.1495 45.2623 37.6342 46.0336Z" fill="black" fill-rule="evenodd"/>
</svg>