<?xml version="1.0" encoding="utf-8"?>
<svg xmlns="http://www.w3.org/2000/svg" fill="none" height="81" viewBox="0 0 81 81" width="81">
    <g display="none" id="bg">
        <g display="inline">
            <rect fill="#D4EBF4" height="81" width="81"/>
        </g>
    </g>
<path clip-rule="evenodd" d="M62.6117 10.7031H18.6194V18.7031H59.1035L60.2215 27.2002H41.5779C33.9365 27.2002 26.7478 29.22 21.0844 32.7843L4.16802 23.7569L1.34318 29.0503L15.963 36.8522C13.8763 38.9467 12.1901 41.3359 11.0093 43.9732C10.9636 44.0753 10.9222 44.1793 10.8852 44.2848C8.88326 49.9977 7.23801 55.8278 5.95838 61.7415L1.30859 64.3205L4.21881 69.5674L5.48707 68.864C5.61016 69.089 5.7556 69.3034 5.92249 69.5037C6.68246 70.4163 7.8086 70.9439 8.99613 70.9439H69.4855C70.6373 70.9439 71.7332 70.4474 72.4927 69.5814C73.0058 68.9963 73.3317 68.281 73.4428 67.5263L76.1602 68.9765L78.9851 63.6831L72.6457 60.3001L69.1281 33.5656L78.3792 28.4345L75.469 23.1875L68.2867 27.1712L66.5775 14.1813C66.3156 12.191 64.6191 10.7031 62.6117 10.7031ZM53.8108 35.2002H41.5779C37.1383 35.2002 33.1149 36.0058 29.6754 37.3689L39.9832 42.8697L53.8108 35.2002ZM23.491 40.8695C21.1718 42.6891 19.4254 44.8266 18.3764 47.0981C17.299 50.1855 16.3317 53.3089 15.4761 56.4625L33.7341 46.3357L23.491 40.8695ZM16.1607 62.9439H64.8559L40.0385 49.7001L16.1607 62.9439ZM63.9674 55.6689L61.6079 37.7366L46.2876 46.234L63.9674 55.6689Z" fill="black" fill-rule="evenodd"/>
</svg>