<?xml version="1.0" encoding="utf-8"?>
<svg xmlns="http://www.w3.org/2000/svg" fill="none" height="81" viewBox="0 0 81 81" width="81">
    <g display="none" id="bg">
        <g display="inline">
            <rect fill="#D4EBF4" height="81" width="81"/>
        </g>
    </g>
<path clip-rule="evenodd" d="M10.4492 10.0156H70.6602V70.2266H10.4492V10.0156ZM18.4492 45.8237V62.2266H34.8725C26.8405 60.1702 20.5153 53.8518 18.4492 45.8237ZM18.4492 34.4154C20.5143 26.3913 26.8341 20.0753 34.8603 18.0156H18.4492V34.4154ZM46.2382 18.0156C54.2786 20.0789 60.6066 26.4137 62.6602 34.4581V18.0156H46.2382ZM62.6602 45.781C60.6055 53.8294 54.2722 60.1665 46.2259 62.2266H62.6602V45.781ZM37.3978 38.008C36.9805 38.6325 36.7578 39.3667 36.7578 40.1178C36.7578 41.1249 37.1579 42.0908 37.8701 42.803C38.5822 43.5151 39.5481 43.9152 40.5553 43.9152C41.3063 43.9152 42.0405 43.6925 42.665 43.2752C43.2895 42.858 43.7763 42.2649 44.0637 41.571C44.3511 40.8771 44.4263 40.1136 44.2798 39.3769C44.1332 38.6403 43.7716 37.9636 43.2405 37.4326C42.7094 36.9015 42.0328 36.5398 41.2961 36.3933C40.5595 36.2468 39.7959 36.322 39.102 36.6094C38.4082 36.8968 37.8151 37.3835 37.3978 38.008ZM55.368 40.1195C55.368 48.3037 48.7334 54.9383 40.5492 54.9383C32.365 54.9383 25.7305 48.3037 25.7305 40.1195C25.7305 31.9354 32.365 25.3008 40.5492 25.3008C48.7334 25.3008 55.368 31.9354 55.368 40.1195Z" fill="black" fill-rule="evenodd"/>
</svg>