<?xml version="1.0" encoding="utf-8"?>
<svg xmlns="http://www.w3.org/2000/svg" fill="none" height="81" viewBox="0 0 81 81" width="81">
    <g display="none" id="bg">
        <g display="inline">
            <rect fill="#D4EBF4" height="81" width="81"/>
        </g>
    </g>
<path clip-rule="evenodd" d="M70.2891 10.0742H10.1797V23.4665L6.21996 21.6914L3.76562 27.1665L10.1797 30.0417V50.4116L3.76562 53.2869L6.21996 58.7619L10.1797 56.9869V70.1836H70.2891V56.9873L74.2478 58.7619L76.7021 53.2869L70.2891 50.412V30.0413L76.7021 27.1665L74.2478 21.6914L70.2891 23.466V10.0742ZM62.2891 27.0522V18.0742H18.1797V27.0527L24.0788 29.6971C27.52 24.4277 33.4699 20.9453 40.233 20.9453C46.9965 20.9453 52.9465 24.4279 56.3877 29.6977L62.2891 27.0522ZM18.1797 33.6279V46.8254L21.623 45.2818C21.1862 43.6703 20.9531 41.975 20.9531 40.2252C20.9531 38.4764 21.186 36.782 21.6223 35.1712L18.1797 33.6279ZM18.1797 53.4007V62.1836H62.2891V53.4011L56.3862 50.755C52.9448 56.0235 46.9955 59.5051 40.233 59.5051C33.4708 59.5051 27.5217 56.0238 24.0803 50.7556L18.1797 53.4007ZM62.2891 46.8258V33.6275L58.8439 35.1719C59.2802 36.7824 59.513 38.4766 59.513 40.2252C59.513 41.9747 59.2799 43.6698 58.8432 45.2811L62.2891 46.8258ZM40.233 51.5051C43.732 51.5051 46.8589 49.912 48.9278 47.4116L40.2339 43.5143L31.5387 47.4121C33.6077 49.9123 36.7343 51.5051 40.233 51.5051ZM32.8999 40.2267L29.0823 41.938C28.9972 41.3795 28.9531 40.8075 28.9531 40.2252C28.9531 39.6439 28.9971 39.0728 29.0819 38.5151L32.8999 40.2267ZM40.2339 36.939L31.537 33.0404C33.6059 30.5391 36.7334 28.9453 40.233 28.9453C43.733 28.9453 46.8606 30.5393 48.9296 33.041L40.2339 36.939ZM47.5678 40.2267L51.3843 38.5158C51.469 39.0733 51.513 39.6441 51.513 40.2252C51.513 40.8073 51.4689 41.379 51.3839 41.9373L47.5678 40.2267Z" fill="black" fill-rule="evenodd"/>
</svg>