<?xml version="1.0" encoding="utf-8"?>
<svg xmlns="http://www.w3.org/2000/svg" id="Layer_1" style="enable-background:new 0 0 48 48;" version="1.1" viewBox="0 0 48 48" x="0px" y="0px">
<style type="text/css">
	.st0{fill:#1B1B1B;}
</style>
<path class="st0" d="M24,6C14.1,6,6,14.1,6,24s8.1,18,18,18s18-8.1,18-18S33.9,6,24,6z M24,40c-8.8,0-16-7.2-16-16S15.2,8,24,8&#xD;&#xA;	s16,7.2,16,16S32.8,40,24,40z"/>
<path class="st0" d="M28,22c1.1,0,2-0.9,2-2s-0.9-2-2-2s-2,0.9-2,2S26.9,22,28,22z"/>
<path class="st0" d="M28,30c1.1,0,2-0.9,2-2s-0.9-2-2-2s-2,0.9-2,2S26.9,30,28,30z"/>
<path class="st0" d="M20,22c1.1,0,2-0.9,2-2s-0.9-2-2-2s-2,0.9-2,2S18.9,22,20,22z"/>
<path class="st0" d="M20,30c1.1,0,2-0.9,2-2s-0.9-2-2-2s-2,0.9-2,2S18.9,30,20,30z"/>
</svg>