<?xml version="1.0" encoding="utf-8"?>
<svg xmlns="http://www.w3.org/2000/svg" id="Layer_1" style="enable-background:new 0 0 48 48;" version="1.1" viewBox="0 0 48 48" x="0px" y="0px">
<style type="text/css">
	.st0{fill:#1B1B1B;}
</style>
<path class="st0" d="M24,8C14.1,8,6,15.2,6,24s8.1,16,18,16s18-7.2,18-16S33.9,8,24,8z M24,38c-8.8,0-16-6.3-16-14s7.2-14,16-14&#xD;&#xA;	s16,6.3,16,14S32.8,38,24,38z"/>
<path class="st0" d="M24,14c-5.5,0-10,4-10,9s4.5,9,10,9s10-4,10-9S29.5,14,24,14z M24,30c-3.2,0-5.9-1.6-7.2-4c1.3-2.4,4-4,7.2-4&#xD;&#xA;	s5.9,1.6,7.2,4C29.9,28.4,27.2,30,24,30z M32,23.6c-1.8-2.2-4.7-3.6-8-3.6s-6.1,1.4-8,3.6c0-0.2,0-0.4,0-0.6c0-3.9,3.6-7,8-7&#xD;&#xA;	s8,3.1,8,7C32,23.2,32,23.4,32,23.6z"/>
</svg>