<?xml version="1.0" encoding="utf-8"?>
<svg xmlns="http://www.w3.org/2000/svg" id="Layer_1" style="enable-background:new 0 0 48 48;" version="1.1" viewBox="0 0 48 48" x="0px" y="0px">
<style type="text/css">
	.st0{fill:#1B1B1B;}
</style>
<path class="st0" d="M24,20c9.1,0,14.9-6.5,17-9.3c0.4-0.5,0.5-1.2,0.3-1.8c-0.2-0.6-0.7-1.1-1.4-1.3C37.7,7,32.6,6,24,6&#xD;&#xA;	S10.3,7,8.1,7.6C7.4,7.8,6.9,8.3,6.7,8.9C6.5,9.5,6.6,10.2,7,10.7C9.1,13.5,14.9,20,24,20z M24,8c8.3,0,13.2,1,15.4,1.6&#xD;&#xA;	C37.5,12.1,32.2,18,24,18S10.5,12.1,8.6,9.6C10.8,9,15.7,8,24,8z"/>
<path class="st0" d="M42,16h-2v4h2V16z"/>
<path class="st0" d="M42,24h-2v4h2V24z"/>
<path class="st0" d="M26,40h-4v2h4V40z"/>
<path class="st0" d="M39.4,31.8l-2.3,3.3l1.6,1.1l2.3-3.3L39.4,31.8z"/>
<path class="st0" d="M33.9,37.5l-3.7,1.6l0.8,1.8l3.7-1.6L33.9,37.5z"/>
<path class="st0" d="M8.6,31.8L6.9,33l2.3,3.3l1.6-1.1L8.6,31.8z"/>
<path class="st0" d="M14,37.5l-0.8,1.8l3.7,1.6l0.8-1.8L14,37.5z"/>
<path class="st0" d="M8,16H6v4h2V16z"/>
<path class="st0" d="M8,24H6v4h2V24z"/>
</svg>