<?xml version="1.0" encoding="utf-8"?>
<svg xmlns="http://www.w3.org/2000/svg" id="Layer_1" style="enable-background:new 0 0 48 48;" version="1.1" viewBox="0 0 48 48" x="0px" y="0px">
<style type="text/css">
	.st0{fill:#1B1B1B;}
</style>
<path class="st0" d="M20.6,32l-0.2,0.7C19.3,36,17.5,40,15,40C9.3,40,6.5,20.8,6,8h21.7c0.1,2.9,0.7,12.1,2.3,20h2&#xD;&#xA;	c-1.6-7.5-2.2-16.3-2.3-19.6c0-0.1,0-0.3,0-0.4c0-1.1-0.9-1.9-2-1.9H6C4.9,6,4,6.9,4,8.1c0,0.2,0,0.4,0,0.6C4.4,16,6.2,42,15,42&#xD;&#xA;	h23.7c2.7,0,4.9-2.2,6.7-6.8c0.8-2.2,0.8-3.2,0.8-3.2H20.6z M38.7,40H19c1.2-1.3,2.2-3.3,3.1-6h21.5C42.5,37,40.9,40,38.7,40z"/>
</svg>