<?xml version="1.0" encoding="utf-8"?>
<svg xmlns="http://www.w3.org/2000/svg" id="Layer_1" style="enable-background:new 0 0 48 48;" version="1.1" viewBox="0 0 48 48" x="0px" y="0px">
<style type="text/css">
	.st0{fill:#1B1B1B;}
</style>
<path class="st0" d="M40,22c0-8.8-7.2-16-16-16S8,13.2,8,22c0,5.8,2,10.4,5.7,13.8c0.9-0.1,1.9-0.1,2.9-0.2C12.3,32.6,10,28,10,22&#xD;&#xA;	c0-7.7,6.3-14,14-14s14,6.3,14,14c0,9.5-5.7,15.5-16.1,17C15,40,6.1,40,6,40v2c0.1,0,9.2,0,16.1-1C33.5,39.4,40,32.4,40,22z"/>
<path class="st0" d="M35.7,39.8c-0.9,0.7-1.8,1.3-2.8,1.8c4.8,0.4,9,0.4,9.1,0.4v-2C42,40,39.2,40,35.7,39.8z"/>
</svg>