<?xml version="1.0" encoding="utf-8"?>
<svg xmlns="http://www.w3.org/2000/svg" id="Layer_1" style="enable-background:new 0 0 48 48;" version="1.1" viewBox="0 0 48 48" x="0px" y="0px">
<style type="text/css">
	.st0{fill:#1B1B1B;}
</style>
<path class="st0" d="M40,24c0-6.3,0.8-11.9,1.4-15.1c0.2-1.3-0.7-2.4-2-2.4c-0.1,0-0.2,0-0.4,0C35.8,7.2,30.3,8,24,8&#xD;&#xA;	S12.2,7.2,8.9,6.6c-0.1,0-0.2,0-0.4,0c-1.2,0-2.2,1.1-2,2.4C7.2,12.1,8,17.7,8,24S7.2,35.9,6.6,39.1c-0.2,1.3,0.7,2.4,2,2.4&#xD;&#xA;	c0.1,0,0.2,0,0.4,0c3.2-0.7,8.7-1.5,15-1.5s11.8,0.8,15.1,1.4c0.1,0,0.2,0,0.4,0c1.2,0,2.2-1.1,2-2.4C40.8,35.8,40,30.3,40,24z&#xD;&#xA;	 M39.4,39.4C35.9,38.8,30.3,38,24,38s-11.9,0.8-15.4,1.4C9.2,35.9,10,30.3,10,24S9.2,12.1,8.6,8.6C12.1,9.2,17.7,10,24,10&#xD;&#xA;	s11.9-0.8,15.4-1.4C38.8,12.1,38,17.7,38,24S38.8,35.9,39.4,39.4z"/>
<path class="st0" d="M13,14c0,0,1,4.2,1,10s-1,10-1,10h2c0.2-1,1-4.7,1-10s-0.8-9-1-10H13z"/>
</svg>