<?xml version="1.0" encoding="utf-8"?>
<svg xmlns="http://www.w3.org/2000/svg" id="Layer_1" style="enable-background:new 0 0 48 48;" version="1.1" viewBox="0 0 48 48" x="0px" y="0px">
<style type="text/css">
	.st0{fill:#1B1B1B;}
</style>
<path class="st0" d="M39.1,12.3C37.7,11.5,36,12.4,36,14c0,0.6-0.2,14-12,14S12,14.6,12,14c0-1.6-1.7-2.5-3.1-1.7L0,17.9v2.4L10,14&#xD;&#xA;	c0,0,0,16,14,16s14-16,14-16l10,6.2v-2.4L39.1,12.3z"/>
<path class="st0" d="M34,14.5c0-0.5,0-2.1,0-2.1c-2.4,0.5-5.9,1-10,1s-7.6-0.5-10-1c0,0,0,1.6,0,2.1c2.5,0.5,6,1,10,1&#xD;&#xA;	S31.5,15,34,14.5z"/>
<path class="st0" d="M34.4,30.6l1.3,1.6c1.3-1,2.4-2.3,3.4-3.7l-1.6-1.2C36.5,28.6,35.5,29.7,34.4,30.6z"/>
<path class="st0" d="M39.6,23.3l1.8,0.8c0.5-1.3,1-2.6,1.3-4L41,19C40.7,20.5,40.2,22,39.6,23.3z"/>
<path class="st0" d="M26.2,33.9l0.2,2c1.7-0.2,3.4-0.6,4.9-1.2l-0.7-1.9C29.2,33.4,27.8,33.7,26.2,33.9z"/>
<path class="st0" d="M10.6,27.3L9,28.5c1,1.4,2.1,2.7,3.4,3.7l1.3-1.6C12.5,29.7,11.5,28.6,10.6,27.3z"/>
<path class="st0" d="M5.2,20.1c0.4,1.4,0.8,2.8,1.3,4l1.8-0.8C7.8,22,7.3,20.5,7,19L5.2,20.1z"/>
<path class="st0" d="M16.7,34.7c1.5,0.6,3.1,1,4.9,1.2l0.2-2c-1.5-0.2-3-0.5-4.3-1L16.7,34.7z"/>
</svg>