<?xml version="1.0" encoding="utf-8"?>
<svg xmlns="http://www.w3.org/2000/svg" id="Layer_1" style="enable-background:new 0 0 48 48;" version="1.1" viewBox="0 0 48 48" x="0px" y="0px">
<style type="text/css">
	.st0{fill:#1B1B1B;}
</style>
<path class="st0" d="M18,6H8C6.9,6,6,6.9,6,8c0,0,0,20,0,26.7c0,3.8,3,7.2,6.8,7.3c0.1,0,0.1,0,0.2,0c3.9,0,7-3.1,7-7&#xD;&#xA;	c0-6.8,0-27,0-27C20,6.9,19.1,6,18,6z M18,35c0,2.8-2.2,5-5,5h-0.2C10.2,39.9,8,37.5,8,34.7C8,28,8,8,8,8h10C18,8,18,28.2,18,35z"/>
<path class="st0" d="M37,18l-7-7c-0.4-0.4-0.9-0.6-1.4-0.6s-1,0.2-1.4,0.6L24,14.1v2.8l4.6-4.6l7.1,7.1L24,31.1v2.8l13-13&#xD;&#xA;	C37.8,20.1,37.8,18.8,37,18z"/>
<path class="st0" d="M40,28h-4.4l-2,2H40v10H22.8c-0.4,0.7-0.8,1.4-1.3,2H40c1.1,0,2-0.9,2-2V30C42,28.9,41.1,28,40,28z"/>
<path class="st0" d="M14,34h-2v2h2V34z"/>
</svg>