<?xml version="1.0" encoding="utf-8"?>
<svg xmlns="http://www.w3.org/2000/svg" id="Layer_1" style="enable-background:new 0 0 48 48;" version="1.1" viewBox="0 0 48 48" x="0px" y="0px">
<style type="text/css">
	.st0{clip-path:url(#SVGID_2_);}
	.st1{fill:#1B1B1B;}
</style>
<g>
	<defs>
		<rect height="48" id="SVGID_1_" width="48" y="0"/>
	</defs>
	<clipPath id="SVGID_2_">
		<use href="#SVGID_1_" style="overflow:visible;"/>
	</clipPath>
	<g class="st0">
		<path class="st1" d="M0,17.8v2.4l3.9-2.5L2.8,16L0,17.8z"/>
		<path class="st1" d="M9.5,11.7l-3.4,2.1l1.1,1.7l3.4-2.1L9.5,11.7z"/>
		<path class="st1" d="M26,15.9v-2c-0.6,0-1.3,0.1-2,0.1s-1.4,0-2-0.1v2c0.6,0,1.3,0.1,2,0.1S25.4,16,26,15.9z"/>
		<path class="st1" d="M34,12.3c-1,0.4-2.4,0.8-4,1.1v2c1.6-0.3,2.9-0.7,4-1.1V12.3z"/>
		<path class="st1" d="M18,13.4c-1.6-0.3-3-0.8-4-1.1v2.1c1.1,0.4,2.4,0.8,4,1.1V13.4z"/>
		<path class="st1" d="M45.2,16l-1.1,1.7l3.9,2.5v-2.4L45.2,16z"/>
		<path class="st1" d="M38.4,11.7l-1.1,1.7l3.4,2.1l1.1-1.7L38.4,11.7z"/>
		<path class="st1" d="M24,34C12.3,34,8.2,25.8,6.8,20.6L5,21.7C6.8,27.5,11.5,36,24,36s17.2-8.5,19-14.3l-1.7-1.1&#xD;&#xA;			C39.8,25.8,35.7,34,24,34z"/>
		<path class="st1" d="M14.5,26.2c2.4,2.5,5.6,3.8,9.5,3.8c4,0,7.2-1.3,9.5-3.8c2.2-2.3,3.3-5.3,3.9-8L35.6,17&#xD;&#xA;			c-0.5,2.6-1.4,5.6-3.5,7.8c-2,2.1-4.7,3.2-8.1,3.2s-6.1-1.1-8.1-3.2c-2.1-2.2-3.1-5.2-3.5-7.8l-1.8,1.2&#xD;&#xA;			C11.1,20.9,12.3,23.9,14.5,26.2z"/>
	</g>
</g>
</svg>