<?xml version="1.0" encoding="utf-8"?>
<svg xmlns="http://www.w3.org/2000/svg" id="Layer_1" style="enable-background:new 0 0 48 48;" version="1.1" viewBox="0 0 48 48" x="0px" y="0px">
<style type="text/css">
	.st0{fill:#39B75D;}
	.st1{fill:#1B1B1B;}
</style>
<g>
	<path class="st0" d="M31,16H17v16h14V16z" id="shape02"/>
	<path class="st1" d="M41,10c-2.5-5.6-11-6-11-6c0,3.3-2.7,6-6,6s-6-2.7-6-6c0,0-8.5,0.4-11,6c-1.8,4-4,12-4,12l9,2v20&#xD;&#xA;		h24V24l9-2C45,22,42.8,14,41,10z M34,16v26H14V16h-2v6l-6.5-1.4c0.8-2.6,2.2-7.1,3.3-9.7c1.4-3.1,5.2-4.2,7.5-4.6&#xD;&#xA;		c1,3.3,4,5.8,7.7,5.8c3.6,0,6.7-2.4,7.7-5.8c2.3,0.4,6.1,1.6,7.5,4.6c1.2,2.6,2.5,7.1,3.3,9.7L36,22v-6H34z" id="shape01"/>
</g>
</svg>