<?xml version="1.0" encoding="utf-8"?>
<svg xmlns="http://www.w3.org/2000/svg" id="Layer_1" style="enable-background:new 0 0 48 48;" version="1.1" viewBox="0 0 48 48" x="0px" y="0px">
<style type="text/css">
	.st0{fill:#1B1B1B;}
</style>
<path class="st0" d="M24.5,35.1C21.8,33.6,19,32,15.1,32c-0.1,0-0.1,0-0.2,0c-3,0-6,1.1-9,3v2.5c3-2.3,6-3.5,9-3.5H15&#xD;&#xA;	c3.3,0,5.8,1.4,8.4,2.9c2.7,1.5,5.5,3.1,9.4,3.1c0.1,0,0.1,0,0.2,0c3,0,6-1.1,9-3v-2.5c-3,2.3-6,3.5-9,3.5&#xD;&#xA;	C29.5,38,27.1,36.6,24.5,35.1z"/>
<path class="st0" d="M24.5,23.1C21.8,21.6,19,20,15.1,20c-0.1,0-0.1,0-0.2,0c-3,0-6,1.1-9,3v2.5c3-2.3,6-3.5,9-3.5H15&#xD;&#xA;	c3.3,0,5.8,1.4,8.4,2.9c2.7,1.5,5.5,3.1,9.4,3.1c0.1,0,0.1,0,0.2,0c3,0,6-1.1,9-3v-2.5c-3,2.3-6,3.5-9,3.5&#xD;&#xA;	C29.5,26,27.1,24.6,24.5,23.1z"/>
<path class="st0" d="M33,14c-3.4,0-5.9-1.4-8.5-2.9C21.8,9.6,19,8,15.1,8H15c-3,0-6,1.1-9,3v2.5c3-2.3,6-3.5,9-3.5h0.1&#xD;&#xA;	c3.3,0,5.8,1.4,8.4,2.9c2.7,1.5,5.5,3.1,9.4,3.1c0.1,0,0.1,0,0.2,0c3,0,6-1.1,9-3v-2.5C39,12.8,36,14,33,14z"/>
</svg>