<?xml version="1.0" encoding="utf-8"?>
<svg xmlns="http://www.w3.org/2000/svg" height="36px" version="1.1" viewBox="0 0 36 36" width="36px">
    
    <title>ripped</title>
    <desc>Created with Sketch.</desc>
    <defs/>
    <g fill="none" fill-rule="evenodd" id="Page-1" stroke="none" stroke-width="1">
        <g fill="#1B1B1B" fill-rule="nonzero" id="ripped">
            <path d="M12,20 L0,26 L0,28 C0,31.11 0,32.74 1.63,34.37 C3.26,36 4.89,36 8,36 L28,36 C31.11,36 32.74,36 34.37,34.37 C36,32.74 36,31.11 36,28 L36,20 L24,26 L12,20 Z M34,23.24 L34,28 C34,31.1 34,32 33,33 C32,34 31.14,34 28,34 L8,34 C4.9,34 4.05,34 3,33 C1.95,32 2,31.1 2,28 L2,27.24 L12,22.24 L23.11,27.79 L24,28.24 L24.89,27.79 L34,23.24 Z" id="Shape"/>
            <path d="M34.37,1.63 C32.74,0 31.11,0 28,0 L8,0 C4.89,0 3.26,0 1.63,1.63 C0,3.26 0,4.89 0,8 L0,16 L12,10 L24,16 L36,10 L36,8 C36,4.89 36,3.26 34.37,1.63 Z M34,8.76 L24,13.76 L12.89,8.21 L12,7.76 L11.11,8.21 L2,12.76 L2,8 C2,4.9 2,4.05 3,3 C4,1.95 4.86,2 8,2 L28,2 C31.1,2 32,2 33,3 C34,4 34,4.86 34,8 L34,8.76 Z" id="Shape"/>
        </g>
    </g>
</svg>