<?xml version="1.0" encoding="utf-8"?>
<svg xmlns="http://www.w3.org/2000/svg" id="Layer_1" style="enable-background:new 0 0 48 48;" version="1.1" viewBox="0 0 48 48" x="0px" y="0px">
<style type="text/css">
	.st0{fill:#1B1B1B;}
</style>
<g>
	<path class="st0" d="M24,6C10.5,6,4,13.2,4,28v1.2l1.1,0.6c0.1,0,0.8,0.4,2,0.8C6.8,31.7,6.4,33.1,6,35c-0.9,4,0,7,4,7&#xD;&#xA;		s8-1,14-1s10,1,14,1s5-3,4-7c-0.5-1.9-0.9-3.3-1.2-4.4c1.3-0.4,2-0.8,2.1-0.8l1.1-0.6V28C44,13.2,37.5,6,24,6z M40.1,35.5&#xD;&#xA;		c0.4,1.8,0.4,3.2-0.1,3.9c-0.3,0.4-1,0.6-1.9,0.6c-1.7,0-3.4-0.2-5.4-0.4C30.2,39.3,27.4,39,24,39s-6.2,0.3-8.7,0.6&#xD;&#xA;		c-2,0.2-3.7,0.4-5.3,0.4c-0.9,0-1.5-0.2-1.9-0.6c-0.5-0.7-0.6-2.1-0.2-4c0.4-1.8,0.8-3.2,1.1-4.3C12.2,32,17.1,33,24,33&#xD;&#xA;		c6.8,0,11.8-0.9,14.9-1.8C39.2,32.3,39.6,33.7,40.1,35.5z M24,31c-12,0-18-3-18-3C6,14,12,8,24,8s18,6,18,20C42,28,36,31,24,31z" id="Vector"/>
</g>
</svg>