<?xml version="1.0" encoding="utf-8"?>
<svg xmlns="http://www.w3.org/2000/svg" id="Layer_1" style="enable-background:new 0 0 48 48;" version="1.1" viewBox="0 0 48 48" x="0px" y="0px">
<style type="text/css">
	.st0{fill:#1B1B1B;}
</style>
<path class="st0" d="M24,32c-2.2,0-4,1.8-4,4s1.8,4,4,4s4-1.8,4-4S26.2,32,24,32z M24,38c-1.1,0-2-0.9-2-2s0.9-2,2-2s2,0.9,2,2&#xD;&#xA;	S25.1,38,24,38z"/>
<path class="st0" d="M34.3,6H13.7c-3.9,0-6.8,3.7-5.8,7.5l3,12c0.6,2.6,2.9,4.4,5.5,4.5c-0.2,1.9-0.3,3.8-0.3,5.7&#xD;&#xA;	c0,4.3,3.3,8.1,7.6,8.3c0.1,0,0.3,0,0.4,0c4.4,0,8-3.6,8-8c0-2-0.1-4-0.3-6c2.6-0.2,4.8-2,5.5-4.5l3-12C41.1,9.7,38.2,6,34.3,6z&#xD;&#xA;	 M24,42c-0.1,0-0.2,0-0.3,0c-3.2-0.1-5.7-3-5.7-6.3c0-6.7,1.6-14.6,2.3-17.7H23v4h2v-4h2.7c0.7,3.2,2.3,11.2,2.3,18&#xD;&#xA;	C30,39.3,27.3,42,24,42z M38.2,13l-3,12c-0.4,1.7-2,3-3.7,3c-0.5-4.4-1.3-8.3-1.8-10.4c-0.2-0.9-1-1.6-2-1.6H25v-4h-2v4h-2.7&#xD;&#xA;	c-0.9,0-1.8,0.7-2,1.6c-0.5,2.1-1.2,6-1.8,10.4c-1.8-0.1-3.3-1.3-3.7-3l-3-12c-0.3-1.2,0-2.5,0.7-3.4c0.8-1,1.9-1.5,3.2-1.5h20.6&#xD;&#xA;	c1.2,0,2.4,0.6,3.2,1.5C38.2,10.5,38.5,11.8,38.2,13z"/>
</svg>