<?xml version="1.0" encoding="utf-8"?>
<svg xmlns="http://www.w3.org/2000/svg" id="Layer_1" style="enable-background:new 0 0 48 48;" version="1.1" viewBox="0 0 48 48" x="0px" y="0px">
<style type="text/css">
	.st0{fill:#1B1B1B;}
</style>
<path class="st0" d="M24,0c0,0,16,11,16,28c0,8.8-7.2,16-16,16S8,36.8,8,28C8,11,24,0,24,0z M24,42c7.7,0,14-6.3,14-14&#xD;&#xA;	C38,14.9,27.5,5.3,24,2.5C20.5,5.3,10,14.8,10,28C10,35.7,16.3,42,24,42z"/>
<path class="st0" d="M32,28h2c0,5.5-4.5,10-10,10v-2C28.4,36,32,32.4,32,28z"/>
</svg>