<?xml version="1.0" encoding="utf-8"?>
<svg xmlns="http://www.w3.org/2000/svg" id="Layer_1" style="enable-background:new 0 0 48 48;" version="1.1" viewBox="0 0 48 48" x="0px" y="0px">
<style type="text/css">
	.st0{fill:#1B1B1B;}
</style>
<path class="st0" d="M12.4,11L11,12.4l2.8,2.8l1.4-1.4L12.4,11z"/>
<path class="st0" d="M18,16.6L16.6,18l2.8,2.8l1.4-1.4L18,16.6z"/>
<path class="st0" d="M6.7,5.3L5.3,6.7l2.8,2.8l1.4-1.4L6.7,5.3z"/>
<path class="st0" d="M35.6,11l-2.8,2.8l1.4,1.4l2.8-2.8L35.6,11z"/>
<path class="st0" d="M30,16.6l-2.8,2.8l1.4,1.4l2.8-2.8L30,16.6z"/>
<path class="st0" d="M41.3,5.3l-2.8,2.8l1.4,1.4l2.8-2.8L41.3,5.3z"/>
<path class="st0" d="M28.6,27.2l-1.4,1.4l2.8,2.8l1.4-1.4L28.6,27.2z"/>
<path class="st0" d="M39.9,38.5l-1.4,1.4l2.8,2.8l1.4-1.4L39.9,38.5z"/>
<path class="st0" d="M34.2,32.8l-1.4,1.4l2.8,2.8l1.4-1.4L34.2,32.8z"/>
<path class="st0" d="M8.1,38.5l-2.8,2.8l1.4,1.4l2.8-2.8L8.1,38.5z"/>
<path class="st0" d="M19.4,27.2L16.6,30l1.4,1.4l2.8-2.8L19.4,27.2z"/>
<path class="st0" d="M13.8,32.8l-2.8,2.8l1.4,1.4l2.8-2.8L13.8,32.8z"/>
<path class="st0" d="M24,21.9L21.9,24l2.1,2.1l2.1-2.1L24,21.9z"/>
</svg>