<?xml version="1.0" encoding="utf-8"?>
<svg xmlns="http://www.w3.org/2000/svg" id="Layer_1" style="enable-background:new 0 0 48 48;" version="1.1" viewBox="0 0 48 48" x="0px" y="0px">
<style type="text/css">
	.st0{fill:#1B1B1B;}
</style>
<path class="st0" d="M24,8c-8.5,0-14,2.4-14,4s5.5,4,14,4c1.4,0,2.8-0.1,4-0.2v2c-1.3,0.1-2.7,0.2-4,0.2c-8,0-16-2.1-16-6s8-6,16-6&#xD;&#xA;	s16,2.1,16,6h-2C38,10.4,32.5,8,24,8z"/>
<path class="st0" d="M24,24c8.5,0,14-2.4,14-4h2c0,3.9-8,6-16,6S8,23.9,8,20h2C10,21.6,15.5,24,24,24z"/>
<path class="st0" d="M10,28c0,1.6,5.5,4,14,4s14-2.4,14-4h2c0,3.9-8,6-16,6S8,31.9,8,28H10z"/>
<path class="st0" d="M38,36h2c0,3.9-8,6-16,6c-1.3,0-2.7-0.1-4-0.2v-2c1.2,0.1,2.6,0.2,4,0.2C32.5,40,38,37.6,38,36z"/>
</svg>