<?xml version="1.0" encoding="utf-8"?>
<svg xmlns="http://www.w3.org/2000/svg" id="Layer_1" style="enable-background:new 0 0 48 48;" version="1.1" viewBox="0 0 48 48" x="0px" y="0px">
<style type="text/css">
	.st0{fill:#1B1B1B;}
</style>
<path class="st0" d="M26,4c-3.1,8.3-9.7,14.9-18,18c8.3,3.1,14.9,9.7,18,18c3.1-8.3,9.7-14.9,18-18C35.7,18.9,29.1,12.3,26,4z&#xD;&#xA;	 M26,35.2C23,29.6,18.4,25,12.8,22C18.4,19,23,14.4,26,8.8C29,14.4,33.6,19,39.2,22C33.6,25,29,29.6,26,35.2z"/>
<path class="st0" d="M11,30c-1.2,3.2-3.8,5.8-7,7c3.2,1.2,5.8,3.8,7,7c1.2-3.2,3.8-5.8,7-7C14.8,35.8,12.2,33.2,11,30z M11,39.9&#xD;&#xA;	c-0.8-1.1-1.8-2-2.9-2.9c1.1-0.8,2-1.8,2.9-2.9c0.8,1.1,1.8,2,2.9,2.9C12.8,37.8,11.8,38.8,11,39.9z"/>
</svg>