<?xml version="1.0" encoding="utf-8"?>
<svg xmlns="http://www.w3.org/2000/svg" height="36px" version="1.1" viewBox="0 0 36 36" width="36px">
    
    <title>bezel</title>
    <desc>Created with Sketch.</desc>
    <defs/>
    <g fill="none" fill-rule="evenodd" id="Page-1" stroke="none" stroke-width="1">
        <g fill="#1B1B1B" fill-rule="nonzero" id="bezel">
            <path d="M18,2 C26.8,2 34,9.2 34,18 C34,26.8 26.8,34 18,34 C9.2,34 2,26.8 2,18 C2,9.2 9.2,2 18,2 Z M18,0 C8.1,0 0,8.1 0,18 C0,27.9 8.1,36 18,36 C27.9,36 36,27.9 36,18 C36,8.1 27.9,0 18,0 Z" id="Shape"/>
            <path d="M18,6 L18,8 C23.5,8 28,12.5 28,18 L30,18 C30,11.4 24.6,6 18,6 Z" id="Shape"/>
        </g>
    </g>
</svg>