<?xml version="1.0" encoding="utf-8"?>
<svg xmlns="http://www.w3.org/2000/svg" id="Layer_1" style="enable-background:new 0 0 48 48;" version="1.1" viewBox="0 0 48 48" x="0px" y="0px">
<style type="text/css">
	.st0{fill:#1B1B1B;}
</style>
<path class="st0" d="M10,22c0-3.7,1.5-7.3,4.1-9.9S20.3,8,24,8s7.3,1.5,9.9,4.1S38,18.3,38,22c0,0,0,0.1,0,0.1&#xD;&#xA;	c0.7-0.1,1.3-0.1,2-0.1c0-4.2-1.7-8.3-4.7-11.3C32.3,7.7,28.2,6,24,6s-8.3,1.7-11.3,4.7C9.7,13.7,8,17.8,8,22c0.7,0,1.3,0,2,0.1&#xD;&#xA;	C10,22.1,10,22,10,22z"/>
<path class="st0" d="M40,24c-3.1,0-6.2,0.7-8.9,2.1c-2.8,1.4-5.2,3.4-7.1,5.9c-1.9-2.5-4.3-4.5-7.1-5.9C14.2,24.7,11.1,24,8,24&#xD;&#xA;	c-1.3,0-2.6,0.1-3.8,0.4c0.6,4.8,2.9,9.3,6.6,12.5c3.7,3.2,8.4,5,13.2,5s9.6-1.8,13.2-5c3.7-3.2,6-7.7,6.6-12.5&#xD;&#xA;	C42.6,24.1,41.3,24,40,24z M24,40c-4.1,0-8-1.4-11.2-3.9c-3.2-2.5-5.4-6.1-6.3-10C7,26,7.5,26,8,26c2.8,0,5.6,0.6,8.1,1.9&#xD;&#xA;	c2.5,1.3,4.7,3.1,6.3,5.3l1.6,2.1l1.6-2.1c1.7-2.3,3.8-4.1,6.3-5.3c2.5-1.3,5.3-1.9,8.1-1.9c0.5,0,1,0,1.5,0.1&#xD;&#xA;	c-0.9,4-3.2,7.5-6.3,10C32,38.6,28.1,40,24,40z"/>
</svg>