<?xml version="1.0" encoding="utf-8"?>
<svg xmlns="http://www.w3.org/2000/svg" id="Layer_1" style="enable-background:new 0 0 48 48;" version="1.1" viewBox="0 0 48 48" x="0px" y="0px">
<style type="text/css">
	.st0{fill:#1B1B1B;}
</style>
<path class="st0" d="M14,6H8v2h6V6z"/>
<path class="st0" d="M28,6h-8v2h8V6z"/>
<path class="st0" d="M38.6,6H34v2h4.6l-3.3,3.3l1.4,1.4L40,9.4C41.3,8.2,40.4,6,38.6,6z"/>
<path class="st0" d="M31.1,15.6l-5.7,5.7l1.4,1.4l5.7-5.7L31.1,15.6z"/>
<path class="st0" d="M40,40h-6v2h6V40z"/>
<path class="st0" d="M28,40h-8v2h8V40z"/>
<path class="st0" d="M12.7,36.7l-1.4-1.4L8,38.6C6.7,39.8,7.6,42,9.4,42H14v-2H9.4L12.7,36.7z"/>
<path class="st0" d="M21.2,25.3L15.5,31l1.4,1.4l5.7-5.7L21.2,25.3z"/>
</svg>