<?xml version="1.0" encoding="utf-8"?>
<svg xmlns="http://www.w3.org/2000/svg" id="Layer_1" style="enable-background:new 0 0 48 48;" version="1.1" viewBox="0 0 48 48" x="0px" y="0px">
<style type="text/css">
	.st0{fill:#1B1B1B;}
</style>
<path class="st0" d="M0,29.9L30.1,40l7.8-1.8L34,0h2l4.1,39.8L29.9,42L0,32.1V29.9z"/>
<path class="st0" d="M32.1,7.8l-2,0.2l0.4,4l2-0.2L32.1,7.8z"/>
<path class="st0" d="M29.3,0h2l0.4,3.9l-2,0.2L29.3,0z"/>
<path class="st0" d="M32.9,15.8l-2,0.2l0.4,4l2-0.2L32.9,15.8z"/>
<path class="st0" d="M33.7,23.8l-2,0.2l0.4,4l2-0.2L33.7,23.8z"/>
<path class="st0" d="M34.6,31.7l-2,0.2l0.4,4l2-0.2L34.6,31.7z"/>
</svg>