<?xml version="1.0" encoding="utf-8"?>
<svg xmlns="http://www.w3.org/2000/svg" id="Layer_1" style="enable-background:new 0 0 48 48;" version="1.1" viewBox="0 0 48 48" x="0px" y="0px">
<style type="text/css">
	.st0{fill:#1B1B1B;}
</style>
<path class="st0" d="M14,24.6V12c0-3.1,0-3.9,1-5s1.9-1,5-1h8c3.1,0,4,0,5,1s1,1.9,1,5v16h2V12c0-3.1,0-4.7-1.6-6.4&#xD;&#xA;	C32.7,4,31.1,4,28,4h-8c-3.1,0-4.7,0-6.4,1.6S12,8.9,12,12v16h2V24.6z"/>
<path class="st0" d="M32,16H16v2h16V16z"/>
<path class="st0" d="M40,16h-2v2h2v22H8V18h2v-2H8c-0.5,0-1,0.2-1.4,0.6C6.2,17,6,17.5,6,18v24h36V18c0-0.5-0.2-1-0.6-1.4&#xD;&#xA;	C41,16.2,40.5,16,40,16z"/>
</svg>