<?xml version="1.0" encoding="utf-8"?>
<svg xmlns="http://www.w3.org/2000/svg" id="Layer_1" style="enable-background:new 0 0 48 48;" version="1.1" viewBox="0 0 48 48" x="0px" y="0px">
<style type="text/css">
	.st0{fill:#1B1B1B;}
</style>
<path class="st0" d="M24,16c4.4,0,8,3.6,8,8s-3.6,8-8,8s-8-3.6-8-8S19.6,16,24,16z M24,14c-5.5,0-10,4.5-10,10s4.5,10,10,10&#xD;&#xA;	s10-4.5,10-10S29.5,14,24,14z"/>
<path class="st0" d="M33.2,8l9.2,16l-9.2,16H14.8L5.5,24l9.2-16H33.2z M34.4,6H13.6L3.2,24l10.4,18h20.8l10.4-18L34.4,6z"/>
</svg>