<?xml version="1.0" encoding="utf-8"?>
<svg xmlns="http://www.w3.org/2000/svg" height="42px" version="1.1" viewBox="0 0 44 42" width="44px">
    
    <title>feature</title>
    <desc>Created with Sketch.</desc>
    <defs/>
    <g fill="none" fill-rule="evenodd" id="Page-1" stroke="none" stroke-width="1">
        <g fill="#1B1B1B" fill-rule="nonzero" id="feature">
            <path d="M21.9999,5 L27.3999,15.9 L39.3999,17.6 L30.6999,26.1 L32.6999,38 L21.9999,32.4 L11.2999,38 L13.2999,26.1 L4.5999,17.6 L16.5999,15.9 L21.9999,5 Z M21.9999,0.5 L20.1999,4.1 L15.2999,14 L4.3999,15.6 L0.3999,16.2 L3.2999,19 L11.1999,26.7 L9.2999,37.6 L8.5999,41.6 L12.1999,39.7 L21.9999,34.6 L31.7999,39.7 L35.3999,41.6 L34.6999,37.6 L32.7999,26.7 L40.6999,19 L43.5999,16.2 L39.5999,15.6 L28.6999,14 L23.7999,4.1 L21.9999,0.5 Z" id="Shape"/>
        </g>
    </g>
</svg>