<?xml version="1.0" encoding="utf-8"?>
<svg xmlns="http://www.w3.org/2000/svg" id="Layer_1" style="enable-background:new 0 0 48 48;" version="1.1" viewBox="0 0 48 48" x="0px" y="0px">
<style type="text/css">
	.st0{fill:#1B1B1B;}
</style>
<path class="st0" d="M48,17.9l-8.9-5.6C37.7,11.5,36,12.4,36,14c0,0.6-0.2,14-12,14S12,14.6,12,14c0-1.6-1.7-2.5-3.1-1.7L0,17.9v2.4&#xD;&#xA;	l4.1-2.6C4.7,21.9,7.8,36,24,36s19.3-14.1,19.9-18.3l4.1,2.6V17.9z M24,34C7.7,34,6.1,18.1,6,16.5l4-2.5c0,0,0,16,14,16s14-16,14-16&#xD;&#xA;	l4,2.5C41.9,18.1,40.3,34,24,34z"/>
<path class="st0" d="M18,13.6c-1.5-0.2-2.9-0.4-4-0.7c0,0,0,1.6,0,2.1c1.1,0.2,2.5,0.4,4,0.6V13.6z"/>
<path class="st0" d="M26,16v-2c-0.7,0-1.3,0-2,0s-1.3,0-2,0v2c0.7,0,1.3,0,2,0S25.3,16,26,16z"/>
<path class="st0" d="M34,13c-1.1,0.2-2.5,0.5-4,0.7v2c1.5-0.2,2.9-0.4,4-0.6C34,14.5,34,13,34,13z"/>
</svg>