<?xml version="1.0" encoding="utf-8"?>
<svg xmlns="http://www.w3.org/2000/svg" fill="none" height="81" viewBox="0 0 81 81" width="81">
    <g display="none" id="bg">
        <g display="inline">
            <rect fill="#D4EBF4" height="81" width="81"/>
        </g>
    </g>
<path clip-rule="evenodd" d="M23.7442 20.1853C24.6504 19.718 25.4544 19.2491 26.1504 18.8091C26.5612 19.1615 27.0189 19.5242 27.5249 19.8855C30.2997 21.8667 34.4755 23.7658 40.1524 23.7658C45.8294 23.7658 50.0052 21.8667 52.7799 19.8855C53.286 19.5242 53.7437 19.1615 54.1545 18.8091C54.8505 19.2491 55.6545 19.718 56.5607 20.1853C58.4484 21.1588 60.8004 22.1357 63.5533 22.8226L54.4945 66.2851H25.6728L16.6245 22.8541C19.4321 22.1657 21.8275 21.1737 23.7442 20.1853ZM14.9915 15.0158C16.9794 14.5039 18.6889 13.7911 20.0775 13.075C21.3854 12.4006 22.3907 11.732 23.0513 11.248C23.3807 11.0066 23.6215 10.8131 23.7686 10.6906C23.842 10.6295 23.8917 10.5863 23.9171 10.5639L23.9332 10.5496L27.4121 7.32031L29.9767 11.2878C29.9856 11.3003 30.0021 11.3233 30.0265 11.3556C30.0931 11.4439 30.2163 11.6 30.3978 11.8022C30.7626 12.2085 31.3503 12.7869 32.1737 13.3748C33.7905 14.5292 36.3708 15.7658 40.1524 15.7658C43.934 15.7658 46.5144 14.5292 48.1311 13.3748C48.9546 12.7869 49.5423 12.2085 49.907 11.8022C50.0886 11.6 50.2118 11.4439 50.2784 11.3556C50.3027 11.3233 50.3193 11.3003 50.3282 11.2878L52.8927 7.32031L56.3717 10.5496L56.3878 10.5639C56.4132 10.5863 56.4629 10.6295 56.5363 10.6906C56.6833 10.8131 56.9242 11.0066 57.2536 11.248C57.9142 11.732 58.9195 12.4006 60.2273 13.075C61.5865 13.7759 63.2531 14.4737 65.1873 14.983L65.3792 14.0625H73.5511L60.999 74.2851H19.1677L6.62109 14.0625H14.7929L14.9915 15.0158ZM40.7883 41.4645C40.2514 42.2681 39.9648 43.2127 39.9648 44.1791C39.9648 45.475 40.4796 46.7178 41.396 47.6342C42.3123 48.5505 43.5551 49.0653 44.851 49.0653C45.8174 49.0653 46.7621 48.7787 47.5656 48.2418C48.3691 47.7049 48.9954 46.9418 49.3652 46.049C49.735 45.1562 49.8318 44.1737 49.6433 43.2259C49.4547 42.2781 48.9894 41.4074 48.306 40.7241C47.6227 40.0408 46.7521 39.5754 45.8042 39.3869C44.8564 39.1983 43.874 39.2951 42.9812 39.6649C42.0883 40.0347 41.3252 40.661 40.7883 41.4645ZM30.0149 41.4645C29.478 42.2681 29.1914 43.2127 29.1914 44.1791C29.1914 45.475 29.7062 46.7178 30.6225 47.6342C31.5389 48.5505 32.7817 49.0653 34.0776 49.0653C35.044 49.0653 35.9886 48.7787 36.7922 48.2418C37.5957 47.7049 38.222 46.9418 38.5918 46.049C38.9616 45.1562 39.0584 44.1737 38.8698 43.2259C38.6813 42.2781 38.2159 41.4074 37.5326 40.7241C36.8493 40.0408 35.9786 39.5754 35.0308 39.3869C34.083 39.1983 33.1005 39.2951 32.2077 39.6649C31.3149 40.0347 30.5518 40.661 30.0149 41.4645Z" fill="black" fill-rule="evenodd"/>
</svg>