<?xml version="1.0" encoding="utf-8"?>
<svg xmlns="http://www.w3.org/2000/svg" fill="none" height="81" viewBox="0 0 81 81" width="81">
    <g display="none" id="bg">
        <g display="inline">
            <rect fill="#D4EBF4" height="81" width="81"/>
        </g>
    </g>
<path clip-rule="evenodd" d="M10.0625 10.0625H70.1836V70.1836H10.0625V10.0625ZM18.0625 45.8526V62.1836H34.4149C26.4243 60.1248 20.1315 53.8391 18.0625 45.8526ZM18.0625 34.3939C20.1316 26.4069 26.4251 20.121 34.4163 18.0625H18.0625V34.3939ZM45.8145 18.0625C53.8255 20.126 60.1303 26.438 62.1836 34.4531V18.0625H45.8145ZM62.1836 45.7934C60.1304 53.808 53.8263 60.1197 45.816 62.1836H62.1836V45.7934ZM32.647 38.0137C32.2302 38.6374 32.0078 39.3707 32.0078 40.1208C32.0078 41.1266 32.4074 42.0913 33.1187 42.8026C33.8299 43.5138 34.7946 43.9134 35.8005 43.9134C36.5506 43.9134 37.2838 43.691 37.9075 43.2742C38.5312 42.8575 39.0174 42.2652 39.3044 41.5722C39.5915 40.8791 39.6666 40.1166 39.5202 39.3809C39.3739 38.6452 39.0127 37.9694 38.4823 37.439C37.9519 36.9086 37.2761 36.5473 36.5404 36.401C35.8047 36.2547 35.0421 36.3298 34.3491 36.6168C33.6561 36.9039 33.0637 37.39 32.647 38.0137ZM42.2329 38.0137C41.8162 38.6374 41.5938 39.3707 41.5938 40.1208C41.5938 41.1266 41.9933 42.0913 42.7046 42.8026C43.4158 43.5138 44.3805 43.9134 45.3864 43.9134C46.1365 43.9134 46.8698 43.691 47.4935 43.2742C48.1172 42.8575 48.6033 42.2652 48.8904 41.5722C49.1774 40.8791 49.2525 40.1166 49.1062 39.3809C48.9598 38.6452 48.5986 37.9694 48.0682 37.439C47.5378 36.9086 46.862 36.5473 46.1263 36.401C45.3906 36.2547 44.628 36.3298 43.935 36.6168C43.242 36.9039 42.6497 37.39 42.2329 38.0137ZM54.8949 40.1232C54.8949 48.2857 48.2779 54.9027 40.1154 54.9027C31.9529 54.9027 25.3359 48.2857 25.3359 40.1232C25.3359 31.9607 31.9529 25.3438 40.1154 25.3438C48.2779 25.3438 54.8949 31.9607 54.8949 40.1232Z" fill="black" fill-rule="evenodd"/>
</svg>